{
	"asset":{
		"generator":"Khronos glTF Blender I/O v3.6.27",
		"version":"2.0"
	},
	"scene":0,
	"scenes":[
		{
			"name":"Scene",
			"nodes":[
				0,
				1,
				2
			]
		}
	],
	"nodes":[
		{
			"mesh":0,
			"name":"Curve",
			"translation":[
				0.000568777322769165,
				0.017118200659751892,
				0.000667087733745575
			]
		},
		{
			"mesh":1,
			"name":"Curve.002",
			"rotation":[
				0,
				1,
				0,
				0
			],
			"scale":[
				-1,
				-0.10287050902843475,
				-1
			],
			"translation":[
				0.000568777322769165,
				0.01796002686023712,
				0.000667087733745575
			]
		},
		{
			"mesh":2,
			"name":"Curve.001",
			"translation":[
				0.000568777322769165,
				0.0185183547437191,
				0.000667087733745575
			]
		}
	],
	"materials":[
		{
			"doubleSided":true,
			"name":"Material",
			"pbrMetallicRoughness":{
				"baseColorFactor":[
					0.020859887823462486,
					0.05411616340279579,
					0.13793088495731354,
					1
				],
				"metallicFactor":0.3295454680919647,
				"roughnessFactor":0.25681817531585693
			}
		},
		{
			"doubleSided":true,
			"name":"Material.002",
			"pbrMetallicRoughness":{
				"baseColorFactor":[
					0.041817404329776764,
					0.33657529950141907,
					0.475403755903244,
					1
				],
				"metallicFactor":0,
				"roughnessFactor":0.5
			}
		},
		{
			"doubleSided":true,
			"name":"Material.003",
			"pbrMetallicRoughness":{
				"baseColorTexture":{
					"index":0
				},
				"metallicFactor":0,
				"roughnessFactor":0.5
			}
		}
	],
	"meshes":[
		{
			"name":"Curve",
			"primitives":[
				{
					"attributes":{
						"POSITION":0,
						"NORMAL":1,
						"TEXCOORD_0":2
					},
					"indices":3,
					"material":0
				}
			]
		},
		{
			"name":"Curve.002",
			"primitives":[
				{
					"attributes":{
						"POSITION":4,
						"NORMAL":5,
						"TEXCOORD_0":6
					},
					"indices":3,
					"material":1
				}
			]
		},
		{
			"name":"Curve.003",
			"primitives":[
				{
					"attributes":{
						"POSITION":7,
						"NORMAL":8,
						"TEXCOORD_0":9
					},
					"indices":10,
					"material":2
				}
			]
		}
	],
	"textures":[
		{
			"sampler":0,
			"source":0
		}
	],
	"images":[
		{
			"bufferView":11,
			"mimeType":"image/png",
			"name":"\u7eb9\u7406"
		}
	],
	"accessors":[
		{
			"bufferView":0,
			"componentType":5126,
			"count":1140,
			"max":[
				0.28735488653182983,
				0.018038826063275337,
				0.08098198473453522
			],
			"min":[
				-0.25014960765838623,
				0,
				-0.034710608422756195
			],
			"type":"VEC3"
		},
		{
			"bufferView":1,
			"componentType":5126,
			"count":1140,
			"type":"VEC3"
		},
		{
			"bufferView":2,
			"componentType":5126,
			"count":1140,
			"type":"VEC2"
		},
		{
			"bufferView":3,
			"componentType":5123,
			"count":2268,
			"type":"SCALAR"
		},
		{
			"bufferView":4,
			"componentType":5126,
			"count":1140,
			"max":[
				0.28735488653182983,
				0.018038826063275337,
				0.08098198473453522
			],
			"min":[
				-0.25014960765838623,
				0,
				-0.034710608422756195
			],
			"type":"VEC3"
		},
		{
			"bufferView":5,
			"componentType":5126,
			"count":1140,
			"type":"VEC3"
		},
		{
			"bufferView":6,
			"componentType":5126,
			"count":1140,
			"type":"VEC2"
		},
		{
			"bufferView":7,
			"componentType":5126,
			"count":190,
			"max":[
				0.28735488653182983,
				0.018038826063275337,
				0.08098198473453522
			],
			"min":[
				-0.25014960765838623,
				0.018038826063275337,
				-0.034710608422756195
			],
			"type":"VEC3"
		},
		{
			"bufferView":8,
			"componentType":5126,
			"count":190,
			"type":"VEC3"
		},
		{
			"bufferView":9,
			"componentType":5126,
			"count":190,
			"type":"VEC2"
		},
		{
			"bufferView":10,
			"componentType":5123,
			"count":564,
			"type":"SCALAR"
		}
	],
	"bufferViews":[
		{
			"buffer":0,
			"byteLength":13680,
			"byteOffset":0,
			"target":34962
		},
		{
			"buffer":0,
			"byteLength":13680,
			"byteOffset":13680,
			"target":34962
		},
		{
			"buffer":0,
			"byteLength":9120,
			"byteOffset":27360,
			"target":34962
		},
		{
			"buffer":0,
			"byteLength":4536,
			"byteOffset":36480,
			"target":34963
		},
		{
			"buffer":0,
			"byteLength":13680,
			"byteOffset":41016,
			"target":34962
		},
		{
			"buffer":0,
			"byteLength":13680,
			"byteOffset":54696,
			"target":34962
		},
		{
			"buffer":0,
			"byteLength":9120,
			"byteOffset":68376,
			"target":34962
		},
		{
			"buffer":0,
			"byteLength":2280,
			"byteOffset":77496,
			"target":34962
		},
		{
			"buffer":0,
			"byteLength":2280,
			"byteOffset":79776,
			"target":34962
		},
		{
			"buffer":0,
			"byteLength":1520,
			"byteOffset":82056,
			"target":34962
		},
		{
			"buffer":0,
			"byteLength":1128,
			"byteOffset":83576,
			"target":34963
		},
		{
			"buffer":0,
			"byteLength":438554,
			"byteOffset":84704
		}
	],
	"samplers":[
		{
			"magFilter":9729,
			"minFilter":9987
		}
	],
	"buffers":[
		{
			"byteLength":523260,
			"uri":"data:application/octet-stream;base64,"
		}
	]
}
